<svg height="512pt" viewBox="0 0 512 512" width="512pt" xmlns="http://www.w3.org/2000/svg"><path d="m0 0v512h512v-512zm482 96.398438h-130.667969v-66.398438h130.667969zm-211 96.402343v-66.402343h130.667969v66.402343zm-80.332031 96.398438v-66.398438h130.667969v66.398438zm0-192.800781v-66.398438h130.667969v66.398438zm50.332031 30v66.402343h-130.667969v-66.402343zm-160.667969 66.402343h-50.332031v-66.402343h50.332031zm80.335938 30v66.398438h-130.667969v-66.398438zm-80.335938 96.398438v66.402343h-50.332031v-66.402343zm30 0h130.667969v66.402343h-130.667969zm211 96.402343v66.398438h-130.664062v-66.398438zm-50.332031-30v-66.402343h130.667969v66.402343zm160.667969-66.402343h50.332031v66.402343h-50.332031zm-80.335938-30v-66.398438h130.667969v66.398438zm80.335938-96.398438v-66.402343h50.332031v66.402343zm-271-162.800781v66.398438h-130.667969v-66.398438zm-130.667969 385.601562h130.667969v66.398438h-130.667969zm321.332031 66.398438v-66.398438h130.667969v66.398438zm0 0"/></svg>